# xmcd CD database file
#
# Track frame offsets:
#	150
#	17339
#	34237
#	59446
#	79963
#	111498
#	127665
#	145257
#	157850
#
# Disc length: 2348 seconds
#
# Revision: 0
# Processed by: cddbd v1.5.2PL0 Copyright (c) Steve Scherf et al.
# Submitted via: CDex 1.51
#
DISCID=6d092a09
DTITLE=Dexter Gordon - Kind of Gordon - Disk 03 Cry me a River
DYEAR=1955
DGENRE=Jazz
TTITLE0=Cry me a River
TTITLE1=I hear music
TTITLE2=Blowin' for Dootsie
TTITLE3=Rythm mad
TTITLE4=Bonna Rue
TTITLE5=Tenderly
TTITLE6=Don't worry about me
TTITLE7=I should care
TTITLE8=Silver plated
EXTD=YEAR: 1955
EXTT0=
EXTT1=
EXTT2=
EXTT3=
EXTT4=
EXTT5=
EXTT6=
EXTT7=
EXTT8=
PLAYORDER=
